<svg width="20" height="20" viewBox="0 0 20 20" fill="none" xmlns="http://www.w3.org/2000/svg">
<mask id="mask0_1_765" style="mask-type:alpha" maskUnits="userSpaceOnUse" x="0" y="0" width="20" height="20">
<rect width="20" height="20" fill="#D9D9D9"/>
</mask>
<g mask="url(#mask0_1_765)">
<path d="M11.6979 10.3732L11.6534 10.4414L11.7112 10.4987L13.1653 11.9428L12.5114 12.5626L11.0893 11.116L11.0338 11.0595L10.9661 11.1006C10.7547 11.229 10.5413 11.3246 10.3261 11.3881C10.1118 11.4514 9.88202 11.4833 9.63621 11.4833C8.97168 11.4833 8.39956 11.25 7.9149 10.7803C7.4316 10.3119 7.19076 9.7391 7.19076 9.05556C7.19076 8.37201 7.4316 7.79921 7.9149 7.33084C8.39956 6.86114 8.97168 6.62778 9.63621 6.62778C10.3007 6.62778 10.8729 6.86114 11.3575 7.33084C11.8408 7.79921 12.0817 8.37201 12.0817 9.05556C12.0817 9.29944 12.0495 9.53072 11.9857 9.74979C11.9218 9.96884 11.826 10.1766 11.6979 10.3732ZM4.08167 13.3889V13.4889H4.18167H15.818H15.918V13.3889V5.44444V5.34444H15.818H4.18167H4.08167V5.44444V13.3889ZM8.53848 10.1467C8.84198 10.448 9.2097 10.6 9.63621 10.6C10.0627 10.6 10.4304 10.448 10.7339 10.1467C11.0375 9.84523 11.1908 9.47974 11.1908 9.05556C11.1908 8.63068 11.0339 8.26496 10.7241 7.96372C10.4155 7.66363 10.0514 7.51111 9.63621 7.51111C9.2097 7.51111 8.84198 7.66306 8.53848 7.96446C8.23495 8.26588 8.08167 8.63137 8.08167 9.05556C8.08167 9.47974 8.23495 9.84523 8.53848 10.1467ZM4.18167 14.7333C3.80817 14.7333 3.49105 14.6024 3.22486 14.3381C2.95869 14.0738 2.82712 13.7592 2.82712 13.3889V5.44444C2.82712 5.07418 2.95869 4.75958 3.22486 4.49526C3.49105 4.23092 3.80817 4.1 4.18167 4.1H15.818C16.1915 4.1 16.5086 4.23092 16.7748 4.49526C17.041 4.75958 17.1726 5.07418 17.1726 5.44444V13.3889C17.1726 13.7592 17.041 14.0738 16.7748 14.3381C16.5086 14.6024 16.1915 14.7333 15.818 14.7333H4.18167ZM2.09985 16.9V15.6556H17.8998V16.9H2.09985Z" fill="currentColor" stroke="white" stroke-width="0.2"/>
</g>
</svg>
